<svg xmlns="http://www.w3.org/2000/svg" width="32" height="32"><g fill="none" fill-rule="evenodd"><path d="M4 4h24v24H4z"/><path fill="#fff" fill-rule="nonzero" d="M13.221 13.27V9.484a1 1 0 0 0-1-1H9.435a1 1 0 0 0-1 1v2.786a1 1 0 0 0 1 1h3.786ZM9.435 6.484h2.786a3 3 0 0 1 3 3v4.786a1 1 0 0 1-1 1H9.435a3 3 0 0 1-3-3V9.484a3 3 0 0 1 3-3ZM18.84 8.27v5h5a1 1 0 0 0 1-1v-4a1 1 0 0 0-1-1h-4a1 1 0 0 0-1 1Zm5-3a3 3 0 0 1 3 3v4a3 3 0 0 1-3 3h-6a1 1 0 0 1-1-1v-6a3 3 0 0 1 3-3h4Zm-5 13.456v3.792a1 1 0 0 0 1 1h2.792a1 1 0 0 0 1-1v-2.792a1 1 0 0 0-1-1h-3.792Zm3.792 6.792h-2.792a3 3 0 0 1-3-3v-4.792a1 1 0 0 1 1-1h4.792a3 3 0 0 1 3 3v2.792a3 3 0 0 1-3 3Zm-9.392-6.792h-5a1 1 0 0 0-1 1v4a1 1 0 0 0 1 1h4a1 1 0 0 0 1-1v-5Zm-5 8a3 3 0 0 1-3-3v-4a3 3 0 0 1 3-3h6a1 1 0 0 1 1 1v6a3 3 0 0 1-3 3h-4Z"/></g></svg>